<svg xmlns="http://www.w3.org/2000/svg" xmlns:xlink="http://www.w3.org/1999/xlink" width="132" height="30" viewBox="0 0 132 30">
    <defs>
        <path id="a" d="M0 29.97h131.461V0H0z"/>
    </defs>
    <g fill="none" fill-rule="evenodd">
        <path fill="#FFF" d="M43.056 29.97c-2.985 0-5.594-.561-7.96-1.717l.843-5.547c2.388 1.273 4.597 1.893 6.738 1.893 2.8 0 3.102-1.65 3.102-2.358 0-1.583-1.664-2.29-3.59-3.11-3.011-1.28-6.758-2.876-6.758-8.265 0-5.091 3.967-8.51 9.87-8.51 3.279 0 5.44.601 6.974 1.173l-.744 5.595c-1.757-.868-3.983-1.395-5.963-1.395-1.8 0-2.875.826-2.875 2.203 0 1.532 1.636 2.173 3.531 2.913 3.038 1.19 6.818 2.672 6.818 8.15 0 5.452-3.92 8.976-9.986 8.976M59.86 29.62c-3.009 0-4.125-1.105-4.125-4.069V1.644l6.92-.208V19.67c0 5.289.124 8.578.171 9.65a14.42 14.42 0 0 1-2.967.299M69.814 0c2.205 0 3.919 1.402 3.919 3.818 0 2.298-1.714 3.854-3.919 3.854-2.245 0-3.956-1.556-3.956-3.854 0-2.416 1.71-3.818 3.956-3.818"/>
        <mask id="b" fill="#fff">
            <use xlink:href="#a"/>
        </mask>
        <path fill="#FFF" d="M66.337 29.346h6.918V10.07h-6.918zM86.386 14.585c-2.257 0-3.404 1.724-3.404 5.124 0 2 .279 4.658 2.681 4.658.785 0 1.503-.396 2.197-1.207a.468.468 0 0 0 .109-.297v-7.595a.448.448 0 0 0-.29-.422 3.677 3.677 0 0 0-1.293-.261M88.138 1.64l6.788-.204V19.67c0 5.289.125 8.578.172 9.65-.983.203-1.935.299-2.966.299-1.928 0-2.945-.697-3.3-2.262a.445.445 0 0 0-.428-.347.434.434 0 0 0-.364.198c-1.157 1.755-2.866 2.604-5.228 2.604-4.427 0-6.865-3.202-6.865-9.011 0-7.431 3.705-11.197 11.012-11.197h.76a.451.451 0 0 0 .436-.507c-.126-1.017-.186-2.283-.186-3.763V1.862s-.013-.21.17-.222M106.993 13.92c-1.09 0-2.439.56-2.642 3.222-.01.126.033.25.115.34.084.093.2.145.323.145h4.147c.24 0 .44-.202.44-.451 0-2.935-1.666-3.255-2.383-3.255m.838 15.892c-7.28 0-10.248-2.88-10.248-9.949 0-6.23 3.708-10.258 9.452-10.258 3.807 0 8.347 1.494 8.347 8.621 0 1.162-.063 1.982-.14 2.669h-10.606a.437.437 0 0 0-.344.171.452.452 0 0 0-.083.383c.556 2.38 2.474 3.538 5.866 3.538 1.418 0 2.816-.184 4.165-.542l.6 4.306c-1.5.51-3.851 1.06-7.009 1.06M118.21 29.346v-9.598c0-5.29-.124-8.58-.173-9.65 1.083-.231 2.034-.34 2.966-.34 2.099 0 3.149.922 3.407 2.995a.446.446 0 0 0 .437.395c.176 0 .339-.11.406-.282.868-2.196 2.29-3.261 4.35-3.261.675 0 1.341.06 1.858.167l-.362 6.218a7.14 7.14 0 0 0-1.84-.238c-1.77 0-3.145 1.005-4.084 2.98a.474.474 0 0 0-.045.198v10.416h-6.92zM27.053 24.672c0 2.57-2.054 4.674-4.565 4.674H4.565C2.055 29.346 0 27.242 0 24.672V6.318c0-2.57 2.054-4.673 4.565-4.673h17.923c2.511 0 4.565 2.103 4.565 4.673v18.354z" mask="url(#b)"/>
        <path fill="#43AEE3" d="M12.684 8.383a1.982 1.982 0 0 0-2.789-.565l-6.209 4.238a2.1 2.1 0 0 0-.568 2.863s.091.126.197.25c.029.033.053.065.083.096.047.051.095.097.133.127.017.013.057.04.11.08l.048.039 1.563 1.066.45.309 4.193 2.862a1.978 1.978 0 0 0 2.788-.57c.619-.942.37-2.221-.551-2.853l-3.719-2.54 3.718-2.545c.923-.632 1.17-1.913.553-2.857M23.935 16.07l-.006-.008c-.001-.003-.002-.003-.004-.005-.023-.03-.087-.117-.165-.209-.037-.044-.072-.089-.113-.13a1.227 1.227 0 0 0-.126-.121 8.052 8.052 0 0 1-.1-.07c-.019-.015-.034-.033-.055-.05l-1.92-1.306c-.059-.044-.096-.068-.096-.068l-4.193-2.861a1.981 1.981 0 0 0-2.788.568 2.087 2.087 0 0 0 .553 2.854l3.719 2.541-3.717 2.546c-.925.632-1.173 1.91-.556 2.857a1.987 1.987 0 0 0 2.79.565l6.21-4.238a2.106 2.106 0 0 0 .567-2.866" mask="url(#b)"/>
    </g>
</svg>
